# xmcd
#
# Track frame offsets: 
#        150
#        23757
#        42155
#        61846
#        82686
#        98452
#        122625
#        142869
#        161838
#        185239
#        203786
#        219098
#
# Disc length: 3120 seconds
#
# Revision: 0
# Processed by: cddbd v1.5.2PL0 Copyright (c) Steve Scherf et al.
# Submitted via: ExactAudioCopy v0.99pb3
#
DISCID=920c2e0c
DTITLE=Balcar Maciek - Ogien i woda
DYEAR=2010
DGENRE=Blues
TTITLE0=Karuzela (kreci sie)
TTITLE1=Czy to widzisz?
TTITLE2=Popiol i diament
TTITLE3=Niewyslany list
TTITLE4=Czarno
TTITLE5=Stop
TTITLE6=Komu bije
TTITLE7=Siedem zajec
TTITLE8=Moja rozmowa
TTITLE9=Ogien i woda
TTITLE10=Ulga
TTITLE11=Wolnosc
EXTD=
EXTT0=
EXTT1=
EXTT2=
EXTT3=
EXTT4=
EXTT5=
EXTT6=
EXTT7=
EXTT8=
EXTT9=
EXTT10=
EXTT11=
PLAYORDER=
